<svg
    xmlns="http://www.w3.org/2000/svg"
    xml:space="preserve"
    fill="currentColor"
    viewBox="796 796 200 200"
>
    <path
        d="m976.828 857.4-56.941-56.941a15.115 15.115 0 0 0-10.76-4.458h-83.198c-8.393 0-15.217 6.828-15.217 15.222v169.56c0 8.393 6.824 15.219 15.217 15.219H966.07c8.389 0 15.218-6.826 15.218-15.219v-112.62c0-4.065-1.583-7.889-4.46-10.763zm-7.152 123.381a3.61 3.61 0 0 1-3.604 3.608H825.931a3.61 3.61 0 0 1-3.605-3.608V811.22a3.608 3.608 0 0 1 3.605-3.605h79.409a3.936 3.936 0 0 1 3.936 3.936v42.937c0 7.25 5.876 13.126 13.123 13.126h43.342a3.932 3.932 0 0 1 3.936 3.936l-.001 109.231z"
    />
    <path
        d="M935.281 904.37h-78.563a5.967 5.967 0 0 1 0-11.934h78.563a5.966 5.966 0 1 1 0 11.934zM935.281 934.038h-78.563c-3.296 0-5.967-2.671-5.967-5.967s2.671-5.967 5.967-5.967h78.563a5.967 5.967 0 1 1 0 11.934zM935.281 963.707h-78.563a5.967 5.967 0 1 1 0-11.934h78.563a5.967 5.967 0 1 1 0 11.934z"
    />
</svg>
