<svg
    xmlns="http://www.w3.org/2000/svg"
    viewBox="0 0 511.998 511.998"
    xml:space="preserve"
    fill="currentColor"
>
    <path
        d="M202.862 426.687c-8.621-8.765-11.592-20.967-8.969-32.11H108.32c13.576-3.75 22.553-8.541 22.553-8.541s-23.782-33.819-60.944-42.664c-26.868-6.396-53.374 2.014-65.996 7.165a6.322 6.322 0 0 0-2.38 10.003c8.121 9.333 25.243 26.215 48.423 34.036H18.362c-7.669 0-13.886 6.217-13.886 13.886v35.382c0 7.669 6.217 13.886 13.886 13.886h15.152v27.671a8.852 8.852 0 0 0 8.853 8.853h25.417a8.852 8.852 0 0 0 8.853-8.853V457.73h156.759c-18.889-19.202-17.843-18.14-30.534-31.043zM79.563 42.974a8.561 8.561 0 0 0-8.561 8.561v32.298l-10.384 21.711a8.562 8.562 0 0 0 4.029 11.416 8.56 8.56 0 0 0 11.416-4.028L87.286 89.47a8.555 8.555 0 0 0 .838-3.693V51.535a8.561 8.561 0 0 0-8.561-8.561zM300.907 412.434c36.74 37.355 33.966 34.474 35.375 36.114 1.414-1.644-1.379 1.255 35.376-36.114h-70.751zM498.112 394.576h-19.433a34.393 34.393 0 0 1 .618 12.513 34.33 34.33 0 0 1-9.583 19.592c-8.129 8.262-2.546 2.586-29.876 30.373V485.404a8.852 8.852 0 0 0 8.853 8.853h25.417a8.852 8.852 0 0 0 8.853-8.853v-27.671h15.152c7.669 0 13.886-6.217 13.886-13.886v-35.382c0-7.672-6.217-13.889-13.887-13.889z"
    />
    <path
        d="M79.564 16.342c-38.285 0-69.433 31.147-69.433 69.433 0 38.286 31.148 69.433 69.433 69.433s69.433-31.147 69.433-69.433-31.148-69.433-69.433-69.433zm0 121.745c-28.845 0-52.311-23.468-52.311-52.312s23.466-52.313 52.311-52.313 52.311 23.468 52.311 52.313-23.466 52.312-52.311 52.312zM443.508 217.118a16.235 16.235 0 0 0 6.104-9.634l18.198-87.192c1.833-8.777-3.797-17.377-12.574-19.208-8.772-1.832-17.377 3.797-19.208 12.575l-16.954 81.228-33.066 24.989c-3.301 24.85-24.627 43.992-50.239 43.992-17.27 0-32.739-8.737-41.929-22.235l-45.53 10.009-21.094-58.14c-3.057-8.428-12.367-12.78-20.797-9.723-8.429 3.058-12.782 12.369-9.723 20.798l25.945 71.512a16.234 16.234 0 0 0 18.746 10.319c35.409-7.784 27.809-6.114 47.604-10.464l.272-.06v85.809l-59.307 24.097a21.107 21.107 0 0 0-7.104 34.358l68.065 69.202c8.173 8.309 21.536 8.426 29.851.247 3.363-3.308 5.359-7.468 6.031-11.797a40.223 40.223 0 0 1-.003-6.558 20.991 20.991 0 0 0-5.781-11.496l-45.948-46.716 36.504-14.831h49.426l36.506 14.831-45.947 46.716c-8.175 8.312-8.065 21.676.247 29.851 8.309 8.173 21.674 8.067 29.851-.247l68.064-69.202a21.11 21.11 0 0 0-7.104-34.36l-60.176-24.449v-98.068c12.098-9.144 4.042-3.057 61.07-46.153z"
    />
    <circle
        cx="335.769"
        cy="213.172"
        r="36.458"
    />
</svg>
