<svg
    xmlns="http://www.w3.org/2000/svg"
    viewBox="0 0 501.333 501.333"
    xml:space="preserve"
    fill="currentColor"
>
    <path
        d="M250.667 0C112 0 0 112 0 250.667s112 250.667 250.667 250.667 250.667-112 250.667-250.667S389.333 0 250.667 0zm0 459.733c-115.2 0-209.067-93.867-209.067-209.067S135.467 41.6 250.667 41.6s209.067 93.867 209.067 209.067-93.867 209.066-209.067 209.066z"
    />
    <path
        d="M310.4 229.333H272V124.8c0-11.733-9.6-21.333-21.333-21.333-11.733 0-21.333 9.6-21.333 21.333v125.867c0 11.733 9.6 21.333 21.333 21.333h58.667c11.733 0 22.4-9.6 22.4-21.333s-9.6-21.334-21.334-21.334z"
    />
</svg>
