<svg
    xmlns="http://www.w3.org/2000/svg"
    viewBox="0 0 512.018 512.018"
    xml:space="preserve"
    fill="currentColor"
>
    <path
        d="M509.769 480.665 275.102 11.331c-7.253-14.464-30.933-14.464-38.187 0L2.249 480.665a21.345 21.345 0 0 0 .939 20.757c3.904 6.272 10.752 10.112 18.155 10.112h469.333c7.403 0 14.251-3.84 18.155-10.112a21.35 21.35 0 0 0 .938-20.757zm-253.76-54.464c-11.776 0-21.333-9.557-21.333-21.333s9.557-21.333 21.333-21.333 21.333 9.557 21.333 21.333-9.557 21.333-21.333 21.333zm21.333-85.334c0 11.776-9.536 21.333-21.333 21.333-11.797 0-21.333-9.557-21.333-21.333V191.534c0-11.776 9.536-21.333 21.333-21.333 11.797 0 21.333 9.557 21.333 21.333v149.333z"
    />
</svg>
