<svg
    xmlns="http://www.w3.org/2000/svg"
    viewBox="-421 153 116 256"
    fill="currentColor"
>
    <path
        d="M-362.5 198.5c-11.8 0-21.2-9.5-21.2-21.2s9.5-21.3 21.2-21.3 21.2 9.5 21.2 21.2-9.4 21.3-21.2 21.3m10.2 38.8c3.2-3.5 8.6-3.6 11.9-.4l25.4 24.3c3.3 3.1 3.3 8.5.1 11.9-3.2 3.5-8.6 3.6-11.9.4l-25.4-24.3c-3.2-3.2-3.3-8.5-.1-11.9zm-5.2 5.6c0-2.9 1-5.6 3-7.7 2.1-2.2 5-3.4 7.9-3.4 2.7 0 5.3 1 7.2 2.9l4.4 4.2v-1.2h4.8v5.6l17.3 16.5c.4.4.8.8 1.2 1.4v-30c0-15-12.3-27.2-27.4-27.2H-386c-15 0-27.4 12.3-27.4 27.2v65.9c0 5.1 4 9.3 9.2 9.3 5.1 0 9.3-4.1 9.3-9.3v-59.4h4.8V394c0 6.9 5.6 12.4 12.5 12.4s12.4-5.5 12.4-12.4v-87h5.1v87c0 6.9 5.5 12.4 12.4 12.4s12.4-5.5 12.4-12.4c0-7.2.1-79.1.1-124.9l-19.2-18.5c-1.9-2.2-3.1-4.9-3.1-7.7z"
    />
</svg>
